Coordinates
version=1
nRows=9
nColumns=24
inDegrees=yes

Units are S.I. units (second, meters, Newtons, ...)
Angles are in degrees.

endheader
time	pelvis_tilt	pelvis_list	pelvis_rotation	pelvis_tx	pelvis_ty	pelvis_tz	hip_flexion_r	hip_adduction_r	hip_rotation_r	knee_angle_r	ankle_angle_r	subtalar_angle_r	mtp_angle_r	hip_flexion_l	hip_adduction_l	hip_rotation_l	knee_angle_l	ankle_angle_l	subtalar_angle_l	mtp_angle_l	lumbar_extension	lumbar_bending	lumbar_rotation
      1.10816667	     -0.55726331	      0.56674745	      0.13228210	     -0.11078967	      0.97478946	      0.31395025	    -18.97746198	      2.07186337	     -2.58172259	     -3.28074658	     18.20566302	     -2.77813358	      2.49370689	     22.72686276	      1.41788827	      1.74394410	      4.42357792	     -4.98487794	     -7.36765449	      2.24584227	    -13.12579802	      4.01333358	      9.08146942
      1.11233333	     -0.52661927	      0.76077359	      0.14268415	     -0.10490470	      0.97413644	      0.31337626	    -19.08603825	      1.80738194	     -2.86149126	     -3.90265917	     18.44120372	     -2.37666937	      2.58805280	     22.72890289	      1.70510624	      1.92323430	      4.08401608	     -5.23566601	     -7.64674288	      2.34663308	    -13.14525147	      3.77313554	      9.05802574
      1.11650000	     -0.50077422	      0.96865278	      0.15003691	     -0.09899605	      0.97352700	      0.31280048	    -19.17474333	      1.52464963	     -3.12607794	     -4.55515641	     18.65141465	     -2.00287388	      2.68906515	     22.74731659	      2.00583863	      2.08740526	      3.66237303	     -5.55675094	     -7.97182100	      2.44486820	    -13.15571998	      3.50958051	      9.03045275
      1.12066667	     -0.47974455	      1.19347817	      0.16123962	     -0.09305731	      0.97295775	      0.31220324	    -19.23994777	      1.22166466	     -3.39671542	     -5.24956729	     18.83924206	     -1.62504900	      2.80612676	     22.77667937	      2.32628240	      2.27147142	      3.17490875	     -5.92935732	     -8.35029355	      2.54971234	    -13.16297623	      3.23403660	      8.99026769
      1.12483333	     -0.46442244	      1.42633729	      0.17352923	     -0.08709715	      0.97243065	      0.31159578	    -19.28570722	      0.90864637	     -3.64958578	     -5.97214727	     18.98761477	     -1.29692754	      2.93581374	     22.82419403	      2.65619251	      2.44783780	      2.61617350	     -6.34816747	     -8.75777816	      2.65432984	    -13.15595846	      2.94333263	      8.94410253
      1.12900000	     -0.45511977	      1.67015492	      0.18919208	     -0.08111291	      0.97194147	      0.31097128	    -19.30746449	      0.58232672	     -3.89713131	     -6.73299107	     19.10614003	     -0.97761544	      3.08798726	     22.88369458	      2.99948780	      2.63185340	      2.00550133	     -6.81805996	     -9.22096982	      2.76423407	    -13.14270898	      2.64153841	      8.88695768
      1.13316667	     -0.45289164	      1.92106464	      0.20857871	     -0.07510811	      0.97148903	      0.31033510	    -19.31064166	      0.24841055	     -4.12608876	     -7.51677123	     19.17663300	     -0.71072600	      3.25867284	     22.96386963	      3.35200120	      2.80235373	      1.33357356	     -7.31694659	     -9.70712790	      2.87227912	    -13.12110873	      2.33642514	      8.82431496
      1.13733333	     -0.46272540	      2.17949549	      0.22636664	     -0.06907821	      0.97107217	      0.30969242	    -19.28600395	     -0.09534723	     -4.33420635	     -8.33169108	     19.21161389	     -0.47379437	      3.44508127	     23.06556169	      3.71164489	      2.96324614	      0.61269157	     -7.84852744	    -10.22039804	      2.97291462	    -13.08163482	      2.01935283	      8.75376249
      1.14150000	     -0.47246661	      2.44320527	      0.24984922	     -0.06303569	      0.97069981	      0.30902774	    -19.24395321	     -0.44528213	     -4.53673464	     -9.18162495	     19.19469041	     -0.26664936	      3.66376583	     23.17379512	      4.08042608	      3.12771990	     -0.14749308	     -8.37884683	    -10.75867836	      3.07194252	    -13.04313749	      1.69915831	      8.67657156
